<svg width="48" height="48" viewBox="0 0 48 48" fill="none" xmlns="http://www.w3.org/2000/svg" style="width:24px; height:auto; margin:0px" aria-hidden="true" class="m-list__icon m-list--icon-link__icon m-list--ds-cmp-list__icon ">
<path d="M7.97593 40.582L6.98193 46.5" stroke="#C63A1E" stroke-width="1.5" vector-effect="non-scaling-stroke" stroke-linecap="round" stroke-linejoin="round"></path>
<path d="M23.99 40.582L24.982 46.5" stroke="#C63A1E" stroke-width="1.5" vector-effect="non-scaling-stroke" stroke-linecap="round" stroke-linejoin="round"></path>
<path d="M10.0901 12.86L5.01807 40.086L10.9341 41.08L15.3181 17.964" stroke="#C63A1E" stroke-width="1.5" vector-effect="non-scaling-stroke" stroke-linecap="round" stroke-linejoin="round"></path>
<path d="M16.6479 17.962L21.0299 41.08L26.9479 40.086L21.8999 13" stroke="#C63A1E" stroke-width="1.5" vector-effect="non-scaling-stroke" stroke-linecap="round" stroke-linejoin="round"></path>
<path d="M21.9819 12C21.9822 12.8727 21.7921 13.735 21.4249 14.5267C21.0576 15.3184 20.5221 16.0204 19.8557 16.5839C19.1892 17.1473 18.4078 17.5586 17.5661 17.789C16.7243 18.0194 15.8425 18.0635 14.9819 17.918C13.5487 17.6309 12.2622 16.8485 11.348 15.7079C10.4338 14.5673 9.95018 13.1414 9.98194 11.68V9C9.98194 8.60218 10.14 8.22064 10.4213 7.93934C10.7026 7.65804 11.0841 7.5 11.4819 7.5H20.4819C20.8798 7.5 21.2613 7.65804 21.5426 7.93934C21.8239 8.22064 21.9819 8.60218 21.9819 9V12Z" stroke="#C63A1E" stroke-width="1.5" vector-effect="non-scaling-stroke" stroke-linecap="round" stroke-linejoin="round"></path>
<path d="M15.9819 7.5V1.5" stroke="#C63A1E" stroke-width="1.5" vector-effect="non-scaling-stroke" stroke-linecap="round" stroke-linejoin="round"></path>
<path d="M30.9819 46.5H39.9819C40.7776 46.5 41.5406 46.1839 42.1033 45.6213C42.6659 45.0587 42.9819 44.2956 42.9819 43.5V4.5C42.9819 3.70435 42.6659 2.94129 42.1033 2.37868C41.5406 1.81607 40.7776 1.5 39.9819 1.5H30.9819C30.1863 1.5 29.4232 1.81607 28.8606 2.37868C28.298 2.94129 27.9819 3.70435 27.9819 4.5V15" stroke="#C63A1E" stroke-width="1.5" vector-effect="non-scaling-stroke" stroke-linecap="round" stroke-linejoin="round"></path>
<path d="M36.9819 10.5H42.9819" stroke="#C63A1E" stroke-width="1.5" vector-effect="non-scaling-stroke" stroke-linecap="round" stroke-linejoin="round"></path>
<path d="M36.9819 19.5H42.9819" stroke="#C63A1E" stroke-width="1.5" vector-effect="non-scaling-stroke" stroke-linecap="round" stroke-linejoin="round"></path>
<path d="M36.9819 28.5H42.9819" stroke="#C63A1E" stroke-width="1.5" vector-effect="non-scaling-stroke" stroke-linecap="round" stroke-linejoin="round"></path>
<path d="M36.9819 37.5H42.9819" stroke="#C63A1E" stroke-width="1.5" vector-effect="non-scaling-stroke" stroke-linecap="round" stroke-linejoin="round"></path>
</svg>