<svg viewBox="0 0 48 48" xmlns="http://www.w3.org/2000/svg" height="48" width="48" style="width:72px; height:auto; margin:0px" aria-hidden="true" class="m-icon-tile__icon "><desc>User Network Streamline Icon: https://streamlinehq.com</desc><path d="M1.4375 5.75a4.3125 4.3125 0 1 0 8.625 0 4.3125 4.3125 0 1 0 -8.625 0Z" fill="none" stroke="#E64626" stroke-linecap="round" stroke-linejoin="round" stroke-width="2.5" vector-effect="non-scaling-stroke"></path><path d="M9.242166666666668 8.281916666666666 12.9375 10.961416666666668" fill="none" stroke="#E64626" stroke-linecap="round" stroke-linejoin="round" stroke-width="2.5" vector-effect="non-scaling-stroke"></path><path d="M1.4375 40.25a4.3125 4.3125 0 1 0 8.625 0 4.3125 4.3125 0 1 0 -8.625 0Z" fill="none" stroke="#E64626" stroke-linecap="round" stroke-linejoin="round" stroke-width="2.5" vector-effect="non-scaling-stroke"></path><path d="M9.242166666666668 37.71808333333333 12.9375 35.03666666666667" fill="none" stroke="#E64626" stroke-linecap="round" stroke-linejoin="round" stroke-width="2.5" vector-effect="non-scaling-stroke"></path><path d="M35.9375 5.75a4.3125 4.3125 0 1 0 8.625 0 4.3125 4.3125 0 1 0 -8.625 0Z" fill="none" stroke="#E64626" stroke-linecap="round" stroke-linejoin="round" stroke-width="2.5" vector-effect="non-scaling-stroke"></path><path d="M36.75783333333334 8.281916666666666 33.0625 10.961416666666668" fill="none" stroke="#E64626" stroke-linecap="round" stroke-linejoin="round" stroke-width="2.5" vector-effect="non-scaling-stroke"></path><path d="M35.9375 40.25a4.3125 4.3125 0 1 0 8.625 0 4.3125 4.3125 0 1 0 -8.625 0Z" fill="none" stroke="#E64626" stroke-linecap="round" stroke-linejoin="round" stroke-width="2.5" vector-effect="non-scaling-stroke"></path><path d="M36.75783333333334 37.71808333333333 33.0625 35.03666666666667" fill="none" stroke="#E64626" stroke-linecap="round" stroke-linejoin="round" stroke-width="2.5" vector-effect="non-scaling-stroke"></path><path d="M17.96875 15.09375a5.03125 5.03125 0 1 0 10.0625 0 5.03125 5.03125 0 1 0 -10.0625 0Z" fill="none" stroke="#E64626" stroke-linecap="round" stroke-linejoin="round" stroke-width="2.5" vector-effect="non-scaling-stroke"></path><path d="M14.375 30.1875a8.625 8.625 0 0 1 17.25 0Z" fill="none" stroke="#E64626" stroke-linecap="round" stroke-linejoin="round" stroke-width="2.5" vector-effect="non-scaling-stroke"></path></svg>